<svg width="96" height="53" viewBox="0 0 96 53" fill="none" xmlns="http://www.w3.org/2000/svg">
<mask id="mask0_4_92" style="mask-type:alpha" maskUnits="userSpaceOnUse" x="0" y="0" width="96" height="53">
<g clip-path="url(#clip0_4_92)">
<path d="M12.4476 34.5866H10.0295C9.53127 34.5866 9.3645 34.8082 9.3645 35.3085V48.5002C9.3645 49.8892 8.19818 50.5837 6.33733 50.5837C4.47649 50.5837 3.36505 49.8892 3.36505 48.5002V35.3085C3.36505 34.8082 3.1719 34.5866 2.70009 34.5866H0.281945C-0.217305 34.5866 -0.410461 34.8082 -0.410461 35.3085V49.1662C-0.410461 51.4988 1.31 53.6953 6.33733 53.6953C11.3647 53.6953 13.0862 51.4988 13.0862 49.1662V35.3085C13.0862 34.8082 12.9479 34.5866 12.4476 34.5866Z" fill="#102F5E"/>
<path d="M28.5566 34.5867H26.3622C25.8619 34.5867 25.6951 34.8084 25.6951 35.2812V46.3903C25.6951 46.3903 25.2223 45.2504 24.7505 44.4461L19.169 34.8633C19.0571 34.6701 18.8925 34.5867 18.5864 34.5867H16.3909C15.8917 34.5867 15.7249 34.8084 15.7249 35.2812V52.7793C15.7249 53.25 15.8917 53.4717 16.3909 53.4717H18.5864C19.0856 53.4717 19.2524 53.25 19.2524 52.7793V41.6987C19.2788 41.7799 19.6123 42.6961 20.3638 43.9458L25.7226 53.1403C25.8619 53.3883 26.0002 53.4717 26.3622 53.4717H28.5566C29.0569 53.4717 29.2237 53.25 29.2237 52.7793V35.2812C29.2237 34.8084 29.0569 34.5867 28.5566 34.5867Z" fill="#102F5E"/>
<path d="M35.0553 34.5867H32.6404C32.1411 34.5867 31.9722 34.8084 31.9722 35.3087V52.7508C31.9722 53.25 32.1411 53.4717 32.6404 53.4717H35.0553C35.5567 53.4717 35.7235 53.25 35.7235 52.7508V35.3087C35.7235 34.8084 35.5567 34.5867 35.0553 34.5867Z" fill="#102F5E"/>
<path d="M51.3047 34.5867H49.1103C48.609 34.5867 48.4432 34.8084 48.4432 35.2812V46.3903C48.4432 46.3903 47.9704 45.2504 47.5007 44.4461L41.915 34.8633C41.8052 34.6701 41.6385 34.5867 41.3334 34.5867H39.139C38.6377 34.5867 38.473 34.8084 38.473 35.2812V52.7793C38.473 53.25 38.6377 53.4717 39.139 53.4717H41.3334C41.8337 53.4717 42.0005 53.25 42.0005 52.7793V41.6987C42.0269 41.7799 42.3615 42.6961 43.1098 43.9458L48.4717 53.1403C48.609 53.3883 48.7483 53.4717 49.1103 53.4717H51.3047C51.805 53.4717 51.9697 53.25 51.9697 52.7793V35.2812C51.9697 34.8084 51.805 34.5867 51.3047 34.5867Z" fill="#102F5E"/>
<path d="M66.5524 34.5867H54.8871C54.3868 34.5867 54.1936 34.7535 54.1936 35.2517V37.0028C54.1936 37.5031 54.3868 37.6962 54.8871 37.6962H58.8315V52.7508C58.8315 53.25 59.0257 53.4717 59.5239 53.4717H61.942C62.4423 53.4717 62.608 53.25 62.608 52.7508V37.6962H66.5524C67.0253 37.6962 67.2469 37.5031 67.2469 37.0028V35.2517C67.2469 34.7535 67.0253 34.5867 66.5524 34.5867Z" fill="#102F5E"/>
<path d="M79.9678 50.3611H73.2749V45.1955H79.2184C79.7176 45.1955 79.9393 45.0003 79.9393 44.5295V42.8629C79.9393 42.3626 79.7176 42.1969 79.2184 42.1969H73.2749V37.6962H79.6891C80.1609 37.6962 80.3847 37.5031 80.3847 37.0028V35.2517C80.3847 34.7535 80.1609 34.5867 79.6891 34.5867H70.1918C69.6914 34.5867 69.5236 34.8084 69.5236 35.3076V52.7508C69.5236 53.25 69.6914 53.4717 70.1918 53.4717H79.9678C80.4681 53.4717 80.6623 53.2785 80.6623 52.7793V51.0271C80.6623 50.529 80.4681 50.3611 79.9678 50.3611Z" fill="#102F5E"/>
<path d="M92.6876 41.0853C92.6876 42.4744 91.5498 43.1678 89.6879 43.1678H86.9394V37.6961H89.6879C91.5498 37.6961 92.6876 38.3928 92.6876 39.7807V41.0853ZM89.6879 34.5866H83.8552C83.357 34.5866 83.1902 34.8083 83.1902 35.3086V52.7507C83.1902 53.251 83.357 53.4727 83.8552 53.4727H86.2723C86.7726 53.4727 86.9394 53.251 86.9394 52.7507V46.2794H89.6879H89.8547L92.5778 52.7507C92.771 53.1961 92.8829 53.4727 93.2713 53.4727H95.7148C96.2151 53.4727 96.5486 53.1961 96.3544 52.7507L93.3536 45.7527C95.5765 44.9463 96.4103 43.3895 96.4103 41.7514V39.1126C96.4103 36.78 94.7152 34.5866 89.6879 34.5866Z" fill="#102F5E"/>
<path d="M62.6852 12.4826H62.661C62.5718 12.4826 62.5013 12.5553 62.5013 12.6412C62.5013 12.7106 62.5454 12.7711 62.6082 12.7942L62.6225 12.7986C69.6473 15.9114 60.0339 23.6783 48.956 26.9342C48.8877 26.9474 48.8349 26.9474 48.7468 26.8604C48.7424 26.8571 48.7292 26.8527 48.7226 26.8483C48.2249 26.1711 47.3132 25.9454 46.5359 26.3396C46.0327 26.5972 45.7211 27.0366 45.6154 27.5276C45.6066 27.5441 45.5922 27.5629 45.5889 27.5761C45.5251 27.7699 45.3522 27.815 45.3368 27.8183C41.1208 28.6353 36.9301 28.6771 33.5686 27.4528C30.4074 26.2625 29.4671 23.9304 33.0555 20.0811L33.0698 20.0701C33.0962 20.0404 33.1149 19.9996 33.1149 19.9556C33.1149 19.8631 33.0412 19.7893 32.9487 19.7893C32.9079 19.7893 32.8683 19.808 32.8419 19.8323L32.8165 19.8565C27.8034 24.6175 28.257 27.5959 31.7254 28.8974C35.2818 30.233 40.3556 29.9103 45.546 28.6584L45.5493 28.6595C45.6616 28.6254 45.7255 28.665 45.7794 28.7179C46.2441 29.6219 47.2339 29.9676 48.1192 29.5173C48.771 29.1858 49.13 28.5043 49.0793 27.8051L49.0848 27.7996C49.0914 27.6763 49.2511 27.6168 49.2544 27.6157C61.9563 23.5506 73.3568 14.9105 62.6852 12.4826Z" fill="#102F5E"/>
<path fill-rule="evenodd" clip-rule="evenodd" d="M50.2509 0.549136C50.383 1.51587 50.9324 5.85518 50.9324 12.1973C50.9324 13.0936 50.9203 13.9546 50.8983 14.7837C50.895 15.0161 50.7111 15.1989 50.4777 15.2055C49.3337 15.2473 48.1148 15.2726 46.8376 15.2726C45.8378 15.2726 44.8865 15.2561 43.9836 15.2308C43.7568 15.2242 43.5696 15.0326 43.5696 14.8047C43.5487 13.969 43.5355 13.1013 43.5355 12.1973C43.5355 5.84638 44.0849 1.50376 44.217 0.545832C44.217 0.535922 44.2192 0.526012 44.2192 0.516103C44.2192 0.401592 44.1256 0.306901 44.0078 0.306901C43.999 0.306901 43.9869 0.306901 43.9792 0.308002C43.8085 0.330023 43.487 0.370763 43.2998 0.394987C43.0565 0.423614 42.9827 0.692273 42.9827 0.692273C42.9827 0.692273 42.8143 1.38595 42.6106 2.66759C42.5819 2.84266 42.4311 2.9814 42.2472 3.00232C40.981 3.14876 39.9394 3.35356 39.0794 3.59249C39.0607 3.59799 39.0365 3.6024 39.0145 3.6024C38.9077 3.6024 38.8196 3.52202 38.8075 3.41742C38.8064 3.40971 38.8064 3.4009 38.8064 3.39209C38.8064 3.35686 38.8372 3.27648 38.8427 3.25997C38.8493 3.24675 38.8537 3.23244 38.8581 3.21923C39.0816 2.61474 39.445 2.07742 39.9041 1.6436C39.9416 1.60616 39.9603 1.55661 39.9394 1.52468C39.9173 1.49055 39.8601 1.48724 39.8083 1.51037C38.7447 2.01245 37.9288 2.95607 37.5985 4.10338C36.6152 4.4304 35.7927 5.11637 35.2929 6.00933C35.2708 6.05227 35.2741 6.10072 35.3017 6.12274C35.3314 6.14807 35.3842 6.13816 35.425 6.10403C35.8511 5.72966 36.3554 5.43898 36.9059 5.26611C36.9246 5.26061 36.9434 5.25841 36.9632 5.25841C37.0766 5.25841 37.168 5.34869 37.1735 5.4599V5.46761C37.1735 5.47642 37.168 5.50945 37.1658 5.52266C37.1625 5.53587 37.1581 5.54909 37.1581 5.55679C36.9555 6.36168 36.7804 7.34933 36.6516 8.56381C36.6329 8.74108 36.4919 8.88532 36.3169 8.92166C35.0925 9.13857 34.4362 9.31144 34.4362 9.31144C34.4362 9.31144 34.1455 9.38631 34.1136 9.62965C34.0894 9.81573 34.0442 10.1339 34.0211 10.3057C34.02 10.3134 34.0189 10.3244 34.0189 10.3332C34.0189 10.4488 34.1136 10.5446 34.2281 10.5446C34.2391 10.5446 34.2523 10.5424 34.2634 10.5413C34.5805 10.4907 35.2642 10.3883 36.2629 10.2694C36.2717 10.2694 36.2849 10.2672 36.2926 10.2672C36.4093 10.2672 36.504 10.3608 36.504 10.4775C36.504 10.4797 36.5029 10.4852 36.5029 10.4885C36.4677 11.17 36.4424 11.9045 36.4325 12.7016V12.7049C36.4391 13.2334 36.4523 13.7311 36.4721 14.2046C36.4743 14.2156 36.4721 14.231 36.4721 14.242C36.4721 14.4732 36.2838 14.6615 36.0537 14.6615C36.035 14.6615 36.0097 14.6604 35.9931 14.6571C35.1387 14.5536 34.5463 14.4644 34.2601 14.4182C34.2501 14.4171 34.2391 14.416 34.2303 14.416C34.1136 14.416 34.0189 14.5096 34.0189 14.6252C34.0189 14.6362 34.02 14.6483 34.0211 14.6582C34.0464 14.8289 34.0894 15.146 34.1136 15.331C34.1455 15.5754 34.4362 15.6481 34.4362 15.6481C34.4362 15.6481 35.0804 15.8166 36.2739 16.0302C36.4556 16.0643 36.5976 16.2162 36.6185 16.4023C36.7242 17.5166 36.8696 18.4448 37.0414 19.2177C37.0601 19.2915 37.0788 19.3653 37.0953 19.4358C37.0964 19.4424 37.0997 19.4567 37.103 19.4699C37.1063 19.482 37.1107 19.515 37.1107 19.5238V19.5327C37.1063 19.6439 37.0138 19.7331 36.9004 19.7331C36.8817 19.7331 36.863 19.7308 36.8443 19.7253C36.2926 19.5525 35.7894 19.2618 35.3633 18.8885C35.3215 18.8544 35.2708 18.8445 35.24 18.8687C35.2125 18.8918 35.2081 18.9392 35.2312 18.9832C35.7311 19.8751 36.5503 20.5622 37.5357 20.8881C37.865 22.0354 38.6841 22.9801 39.7456 23.4811C39.7984 23.5042 39.8546 23.502 39.8755 23.4679C39.8975 23.4359 39.881 23.3853 39.8403 23.3479C39.38 22.914 39.02 22.3767 38.7965 21.7733C38.791 21.7601 38.7865 21.7458 38.781 21.7326C38.7755 21.715 38.7436 21.6357 38.7447 21.5994V21.5751C38.7579 21.4705 38.846 21.3902 38.9539 21.3902C38.9748 21.3902 38.9991 21.3935 39.0178 21.399C39.0332 21.4034 39.0519 21.4089 39.0673 21.4133C39.9173 21.6379 40.9733 21.835 42.2957 21.9858C42.4674 22.0035 42.6084 22.1246 42.6579 22.2842C42.6645 22.3084 42.6788 22.4053 42.6821 22.4285C42.8737 23.6551 43.0257 24.3432 43.0257 24.3432C43.0257 24.3432 43.0895 24.5954 43.2932 24.635C43.443 24.6658 43.8239 24.7187 44.0364 24.7451C44.0452 24.7462 44.0519 24.7473 44.0607 24.7473C44.1774 24.7473 44.2688 24.6526 44.2688 24.5359V24.515L44.0519 22.6432C44.0486 22.6256 44.0486 22.6079 44.0486 22.5903C44.0486 22.3591 44.2445 22.1609 44.4747 22.1697C45.3214 22.2204 46.2485 22.2534 47.2681 22.2655H47.2725C48.2623 22.2545 49.1696 22.2226 49.9954 22.1752C50.2277 22.1752 50.416 22.3624 50.416 22.5947C50.416 22.6112 50.4127 22.6289 50.4127 22.6443C50.318 23.5703 50.2366 24.2155 50.198 24.5095C50.198 24.5183 50.198 24.5271 50.198 24.5359C50.198 24.6526 50.2905 24.7462 50.4072 24.7462C50.4127 24.7462 50.4193 24.7462 50.4292 24.7451C50.6406 24.7187 51.0183 24.6658 51.1681 24.635C51.374 24.5954 51.4378 24.3432 51.4378 24.3432C51.4378 24.3432 51.5942 23.6297 51.7913 22.3624C51.8221 22.173 51.9542 22.0244 52.1612 21.9957C53.2876 21.8713 54.2246 21.7106 55.0042 21.53C55.1231 21.5014 55.2387 21.4716 55.3477 21.443C55.3642 21.4386 55.383 21.4342 55.3973 21.4287C55.416 21.4232 55.4413 21.4199 55.4622 21.4199C55.5701 21.4199 55.6593 21.5003 55.6714 21.6049V21.6291C55.6725 21.6654 55.6406 21.7447 55.634 21.7623C55.6296 21.7755 55.6241 21.7898 55.6186 21.8031C55.3962 22.4064 55.0361 22.9449 54.5748 23.3776C54.5351 23.415 54.5186 23.4657 54.5395 23.4976C54.5616 23.5306 54.6188 23.5339 54.6706 23.5119C55.732 23.0098 56.5501 22.0651 56.8793 20.9178C57.8637 20.5919 58.684 19.9037 59.1849 19.013C59.207 18.9689 59.2037 18.9216 59.175 18.8984C59.1453 18.8742 59.0947 18.883 59.0539 18.9183C58.6267 19.2926 58.1224 19.5833 57.5708 19.7551C57.5521 19.7606 57.5344 19.7628 57.5157 19.7628C57.4023 19.7628 57.3098 19.6736 57.3054 19.5613C57.3054 19.5591 57.3032 19.5558 57.3032 19.5525C57.3032 19.5448 57.3098 19.5128 57.3131 19.4996C57.3164 19.4864 57.3197 19.4721 57.3208 19.4655C57.3373 19.395 57.3561 19.3213 57.3726 19.2475C57.3957 19.1451 57.4166 19.0372 57.4408 18.9293C57.5895 18.1982 57.7161 17.3393 57.8108 16.3274C57.8306 16.1392 57.9782 15.9817 58.1665 15.952C59.3072 15.7538 59.9337 15.6018 59.9337 15.6018C59.9337 15.6018 60.2056 15.5391 60.2497 15.3354C60.2827 15.1867 60.3378 14.819 60.3675 14.6043C60.3686 14.5955 60.3697 14.5856 60.3697 14.5745C60.3697 14.4589 60.2739 14.3653 60.1594 14.3653C60.1506 14.3653 60.1396 14.3653 60.1297 14.3664C59.8544 14.4083 59.2653 14.4942 58.4175 14.5955C58.4043 14.5966 58.3845 14.5988 58.369 14.5988C58.1389 14.5988 57.9495 14.4105 57.9495 14.1793V14.1528C57.9683 13.6948 57.9815 13.2136 57.9881 12.7049V12.7016C57.9782 11.9045 57.9539 11.1678 57.9176 10.4863V10.4709C57.9176 10.3553 58.0112 10.2606 58.1257 10.2606C58.1356 10.2606 58.1477 10.2617 58.1554 10.2639C59.1882 10.3828 59.8907 10.4896 60.2155 10.5413C60.2254 10.5424 60.2376 10.5435 60.2497 10.5435C60.3675 10.5435 60.4589 10.4499 60.4589 10.3343V10.3112C60.4336 10.1427 60.3895 9.81793 60.3675 9.62965C60.3334 9.38631 60.0427 9.31144 60.0427 9.31144C60.0427 9.31144 59.3677 9.13306 58.1048 8.91175C57.9231 8.87431 57.7844 8.72237 57.7635 8.53629C57.6412 7.36145 57.4761 6.40021 57.279 5.61185C57.2735 5.58762 57.268 5.5645 57.2614 5.54028C57.2614 5.53367 57.2581 5.51936 57.2548 5.50615C57.2515 5.49403 57.246 5.461 57.246 5.45329V5.44449C57.2515 5.33218 57.344 5.24299 57.4574 5.24299C57.4761 5.24299 57.4937 5.24519 57.5124 5.2496C58.0641 5.42356 58.5683 5.71315 58.9956 6.08751C59.0341 6.12274 59.0869 6.13265 59.1178 6.10843C59.1453 6.08421 59.1486 6.03796 59.1266 5.99282C58.6267 5.10095 57.8053 4.41499 56.822 4.08907C56.4917 2.94066 55.6736 1.99704 54.6122 1.49495C54.5594 1.47183 54.5032 1.47403 54.4801 1.50817C54.4603 1.5401 54.4768 1.59075 54.5164 1.62818C54.9778 2.0609 55.3367 2.60043 55.5602 3.20271C55.5668 3.21702 55.5701 3.23024 55.5756 3.24345C55.5767 3.24785 55.5877 3.27978 55.5977 3.31061C55.6032 3.33043 55.6087 3.35246 55.6087 3.37338C55.6087 3.48899 55.5151 3.58258 55.3973 3.58258C55.3796 3.58258 55.3576 3.57928 55.3389 3.57377C54.4878 3.34034 53.4583 3.13995 52.2119 2.99901L52.2053 2.99791C52.0313 2.97369 51.8937 2.84266 51.8562 2.67199C51.8562 2.66539 51.8529 2.64997 51.8529 2.64997C51.6503 1.37824 51.4819 0.691173 51.4819 0.691173C51.4819 0.691173 51.4081 0.421411 51.1648 0.392784C50.9754 0.36856 50.4777 0.305799 50.4777 0.305799C50.4711 0.304698 50.4623 0.304698 50.4568 0.304698C50.3401 0.304698 50.2454 0.398289 50.2454 0.515002C50.2454 0.524912 50.2465 0.537023 50.2476 0.546932M52.0643 20.4223C52.0643 20.6535 52.2526 20.8418 52.4849 20.8418C52.4971 20.8418 52.5136 20.8418 52.5257 20.8407C53.8932 20.7108 54.9987 20.5247 55.8795 20.3155C56.0271 20.2759 56.1438 20.1548 56.1801 20.0083C56.3761 19.1286 56.5391 18.0462 56.6404 16.7062C56.6404 16.7062 56.6426 16.6853 56.6426 16.6765C56.6426 16.4442 56.4532 16.257 56.2231 16.257C56.2021 16.257 56.1834 16.2581 56.1614 16.2614C55.1914 16.3946 54.0507 16.5267 52.7668 16.6335C52.5521 16.6523 52.3969 16.8163 52.3781 17.0597C52.2912 18.2973 52.1821 19.4148 52.0676 20.3728C52.0665 20.3893 52.0643 20.4058 52.0643 20.4223ZM50.8146 17.2138C50.8212 16.9837 50.6252 16.7932 50.3918 16.7932H50.3885C49.2775 16.8494 48.0939 16.8824 46.8431 16.8824C45.8708 16.8824 44.9481 16.8615 44.0783 16.8273C43.8493 16.8273 43.661 17.0156 43.661 17.2468L43.8702 20.5699C43.8812 20.8033 44.064 20.9839 44.293 20.9894C44.293 20.9894 46.1846 21.0367 47.2736 21.0224H47.2769C48.3361 21.0356 50.1837 20.9894 50.1837 20.9894C50.1892 20.9894 50.198 20.9894 50.2046 20.9883C50.4149 20.9784 50.5856 20.8121 50.601 20.6029L50.8146 17.2138ZM42.3507 4.65612C42.354 4.6352 42.354 4.60767 42.354 4.58675C42.354 4.35553 42.1668 4.16725 41.9356 4.16725C41.918 4.16725 41.9026 4.16945 41.8883 4.17055C40.5505 4.3225 39.4813 4.52289 38.6258 4.7354C38.4683 4.76953 38.3428 4.89285 38.3043 5.047C38.1116 5.88161 37.9464 6.90891 37.8363 8.17183C37.833 8.18284 37.833 8.19936 37.833 8.21147C37.833 8.4449 38.0224 8.63208 38.2536 8.63208C38.2734 8.63208 38.2933 8.63098 38.312 8.62767C39.2204 8.50766 41.4456 8.29735 41.6152 8.28414C41.6218 8.28414 41.6471 8.28194 41.6603 8.27974C41.7804 8.26762 42.0446 8.19055 42.0688 7.88776C42.1415 6.66667 42.2439 5.58432 42.3507 4.65612ZM41.9818 20.8297C42.2153 20.8297 42.4201 20.6381 42.408 20.4036C42.408 20.3937 42.4058 20.3838 42.4058 20.375C42.2923 19.4303 42.1855 18.3358 42.1008 17.1191C42.0909 16.8868 41.9125 16.7227 41.6735 16.6919L38.2228 16.3374C37.9927 16.3374 37.8055 16.5179 37.7967 16.7447V16.7965C37.9002 18.0881 38.2415 19.9665 38.2415 19.9665C38.2757 20.1239 38.399 20.2495 38.5575 20.2869C38.5575 20.2869 40.3732 20.6535 41.9334 20.8275C41.9488 20.8297 41.9642 20.8297 41.9818 20.8297ZM38.1094 14.8828C39.3525 14.9885 41.5535 15.1306 41.5535 15.1306C41.7759 15.1416 41.9829 14.9412 41.9741 14.7078C41.9466 13.9062 41.9268 13.0716 41.9268 12.1973C41.9268 11.5224 41.9378 10.8783 41.9554 10.2573C41.9554 10.0183 41.7826 9.81903 41.5348 9.83334C40.2278 9.90271 39.0673 9.9908 38.0764 10.0833C37.8616 10.1042 37.6965 10.2837 37.6965 10.5017C37.6965 10.5017 37.6734 11.9144 37.6822 12.7027V12.7071C37.6756 13.327 37.6767 13.9062 37.6888 14.4567C37.6888 14.6891 37.8705 14.863 38.1094 14.8828ZM56.7483 12.7071V12.7027C56.7571 11.9133 56.7516 11.1822 56.7329 10.4995C56.7296 10.2771 56.5578 10.0943 56.3409 10.0778C55.3675 9.9886 54.2312 9.90271 52.9573 9.83444C52.9518 9.83334 52.9463 9.83334 52.9397 9.83334C52.7063 9.83334 52.5191 10.0216 52.5191 10.254V10.265C52.5356 10.8827 52.5466 11.5257 52.5466 12.1973C52.5466 13.0551 52.5279 13.8754 52.5004 14.6626C52.4926 14.8961 52.6875 15.0865 52.921 15.0865C52.9298 15.0865 52.943 15.0865 52.9529 15.0865C54.2268 15.0084 55.373 14.9126 56.3596 14.819C56.5765 14.7893 56.7384 14.6219 56.7417 14.3984C56.7549 13.8655 56.7549 13.3039 56.7483 12.7071ZM52.8692 8.27643C52.976 8.27864 55.1859 8.48674 56.1185 8.60896C56.1372 8.61116 56.157 8.61336 56.1768 8.61336C56.4102 8.61336 56.5974 8.42508 56.5974 8.19385C56.5974 8.17844 56.5974 8.16192 56.5963 8.14761C56.4477 6.71842 56.135 5.03819 56.135 5.03819C56.1008 4.88184 55.9808 4.75742 55.8289 4.71778C55.8267 4.71668 55.8168 4.71448 55.8168 4.71448C54.9623 4.50637 53.9064 4.31149 52.5829 4.16284C52.5829 4.16284 52.5576 4.16064 52.5433 4.16064C52.3132 4.16064 52.1051 4.35883 52.1249 4.58015C52.126 4.59666 52.3198 6.49821 52.4112 7.84922V7.88115C52.4266 8.09476 52.5895 8.25331 52.8692 8.27643Z" fill="#F9AE0C"/>
</g>
</mask>
<g mask="url(#mask0_4_92)">
<rect width="96" height="54" fill="white"/>
</g>
<defs>
<clipPath id="clip0_4_92">
<rect width="96" height="53" fill="white"/>
</clipPath>
</defs>
</svg>
