<svg width="96" height="53" viewBox="0 0 96 53" fill="none" xmlns="http://www.w3.org/2000/svg">
<g clip-path="url(#clip0_3_3)">
<path d="M12.4476 34.5866H10.0295C9.53126 34.5866 9.36449 34.8083 9.36449 35.3086V48.5002C9.36449 49.8892 8.19817 50.5837 6.33733 50.5837C4.47648 50.5837 3.36505 49.8892 3.36505 48.5002V35.3086C3.36505 34.8083 3.17189 34.5866 2.70008 34.5866H0.281937C-0.217313 34.5866 -0.410469 34.8083 -0.410469 35.3086V49.1662C-0.410469 51.4989 1.30999 53.6953 6.33733 53.6953C11.3647 53.6953 13.0862 51.4989 13.0862 49.1662V35.3086C13.0862 34.8083 12.9479 34.5866 12.4476 34.5866Z" fill="#102F5E"/>
<path d="M28.5566 34.5866H26.3622C25.8619 34.5866 25.6951 34.8083 25.6951 35.2811V46.3902C25.6951 46.3902 25.2223 45.2503 24.7505 44.446L19.169 34.8631C19.0571 34.67 18.8925 34.5866 18.5864 34.5866H16.3909C15.8917 34.5866 15.7249 34.8083 15.7249 35.2811V52.7792C15.7249 53.2499 15.8917 53.4716 16.3909 53.4716H18.5864C19.0856 53.4716 19.2524 53.2499 19.2524 52.7792V41.6985C19.2788 41.7798 19.6123 42.696 20.3638 43.9457L25.7226 53.1401C25.8619 53.3882 26.0002 53.4716 26.3622 53.4716H28.5566C29.0569 53.4716 29.2237 53.2499 29.2237 52.7792V35.2811C29.2237 34.8083 29.0569 34.5866 28.5566 34.5866Z" fill="#102F5E"/>
<path d="M35.0553 34.5866H32.6403C32.1411 34.5866 31.9722 34.8083 31.9722 35.3086V52.7507C31.9722 53.2499 32.1411 53.4716 32.6403 53.4716H35.0553C35.5567 53.4716 35.7234 53.2499 35.7234 52.7507V35.3086C35.7234 34.8083 35.5567 34.5866 35.0553 34.5866Z" fill="#102F5E"/>
<path d="M51.3047 34.5866H49.1103C48.609 34.5866 48.4433 34.8083 48.4433 35.2811V46.3902C48.4433 46.3902 47.9704 45.2503 47.5007 44.446L41.915 34.8631C41.8052 34.67 41.6385 34.5866 41.3334 34.5866H39.139C38.6377 34.5866 38.473 34.8083 38.473 35.2811V52.7792C38.473 53.2499 38.6377 53.4716 39.139 53.4716H41.3334C41.8337 53.4716 42.0005 53.2499 42.0005 52.7792V41.6985C42.0269 41.7798 42.3615 42.696 43.1098 43.9457L48.4718 53.1401C48.609 53.3882 48.7483 53.4716 49.1103 53.4716H51.3047C51.805 53.4716 51.9697 53.2499 51.9697 52.7792V35.2811C51.9697 34.8083 51.805 34.5866 51.3047 34.5866Z" fill="#102F5E"/>
<path d="M66.5524 34.5866H54.887C54.3867 34.5866 54.1936 34.7534 54.1936 35.2516V37.0026C54.1936 37.5029 54.3867 37.6961 54.887 37.6961H58.8314V52.7507C58.8314 53.2499 59.0256 53.4716 59.5238 53.4716H61.942C62.4423 53.4716 62.608 53.2499 62.608 52.7507V37.6961H66.5524C67.0253 37.6961 67.2469 37.5029 67.2469 37.0026V35.2516C67.2469 34.7534 67.0253 34.5866 66.5524 34.5866Z" fill="#102F5E"/>
<path d="M79.9678 50.361H73.2749V45.1954H79.2184C79.7176 45.1954 79.9393 45.0001 79.9393 44.5294V42.8628C79.9393 42.3624 79.7176 42.1967 79.2184 42.1967H73.2749V37.6961H79.6891C80.1609 37.6961 80.3847 37.5029 80.3847 37.0026V35.2516C80.3847 34.7534 80.1609 34.5866 79.6891 34.5866H70.1918C69.6915 34.5866 69.5236 34.8083 69.5236 35.3075V52.7507C69.5236 53.2499 69.6915 53.4716 70.1918 53.4716H79.9678C80.4681 53.4716 80.6623 53.2784 80.6623 52.7792V51.027C80.6623 50.5288 80.4681 50.361 79.9678 50.361Z" fill="#102F5E"/>
<path d="M92.6876 41.0854C92.6876 42.4744 91.5498 43.1679 89.6879 43.1679H86.9393V37.6962H89.6879C91.5498 37.6962 92.6876 38.3928 92.6876 39.7808V41.0854ZM89.6879 34.5867H83.8552C83.357 34.5867 83.1902 34.8083 83.1902 35.3086V52.7507C83.1902 53.251 83.357 53.4727 83.8552 53.4727H86.2723C86.7726 53.4727 86.9393 53.251 86.9393 52.7507V46.2795H89.6879H89.8546L92.5778 52.7507C92.771 53.1961 92.8828 53.4727 93.2713 53.4727H95.7147C96.2151 53.4727 96.5486 53.1961 96.3544 52.7507L93.3536 45.7528C95.5765 44.9464 96.4103 43.3895 96.4103 41.7514V39.1126C96.4103 36.78 94.7152 34.5867 89.6879 34.5867Z" fill="#102F5E"/>
<path d="M62.6852 12.4825H62.661C62.5718 12.4825 62.5014 12.5552 62.5014 12.6411C62.5014 12.7104 62.5454 12.771 62.6082 12.7941L62.6225 12.7985C69.6473 15.9112 60.0339 23.6782 48.956 26.934C48.8877 26.9472 48.8349 26.9472 48.7468 26.8603C48.7424 26.857 48.7292 26.8526 48.7226 26.8481C48.2249 26.171 47.3132 25.9453 46.5359 26.3395C46.0327 26.5971 45.7211 27.0364 45.6154 27.5275C45.6066 27.544 45.5922 27.5627 45.5889 27.576C45.5251 27.7697 45.3522 27.8149 45.3368 27.8182C41.1208 28.6352 36.9301 28.677 33.5686 27.4526C30.4074 26.2624 29.4671 23.9303 33.0555 20.081L33.0698 20.07C33.0962 20.0402 33.1149 19.9995 33.1149 19.9555C33.1149 19.863 33.0412 19.7892 32.9487 19.7892C32.9079 19.7892 32.8683 19.8079 32.8419 19.8321L32.8165 19.8564C27.8034 24.6174 28.257 27.5958 31.7254 28.8972C35.2818 30.2328 40.3556 29.9102 45.546 28.6583L45.5493 28.6594C45.6616 28.6253 45.7255 28.6649 45.7794 28.7178C46.2441 29.6217 47.2339 29.9675 48.1192 29.5171C48.771 29.1857 49.13 28.5042 49.0793 27.805L49.0848 27.7995C49.0914 27.6762 49.2511 27.6167 49.2544 27.6156C61.9563 23.5505 73.3568 14.9104 62.6852 12.4825Z" fill="#102F5E"/>
<path fill-rule="evenodd" clip-rule="evenodd" d="M50.2508 0.549105C50.383 1.51584 50.9324 5.85515 50.9324 12.1973C50.9324 13.0936 50.9203 13.9546 50.8983 14.7837C50.895 15.016 50.7111 15.1988 50.4777 15.2054C49.3336 15.2473 48.1148 15.2726 46.8375 15.2726C45.8378 15.2726 44.8864 15.2561 43.9836 15.2308C43.7567 15.2241 43.5695 15.0326 43.5695 14.8046C43.5486 13.9689 43.5354 13.1013 43.5354 12.1973C43.5354 5.84635 44.0848 1.50373 44.217 0.545802C44.217 0.535892 44.2192 0.525982 44.2192 0.516072C44.2192 0.401561 44.1256 0.306871 44.0078 0.306871C43.999 0.306871 43.9869 0.30687 43.9791 0.307971C43.8085 0.329993 43.487 0.370733 43.2998 0.394956C43.0565 0.423584 42.9827 0.692243 42.9827 0.692243C42.9827 0.692243 42.8142 1.38592 42.6105 2.66756C42.5819 2.84263 42.431 2.98137 42.2472 3.00229C40.9809 3.14873 39.9393 3.35353 39.0794 3.59246C39.0607 3.59796 39.0365 3.60237 39.0144 3.60237C38.9076 3.60237 38.8195 3.52199 38.8074 3.41739C38.8063 3.40968 38.8063 3.40087 38.8063 3.39206C38.8063 3.35683 38.8372 3.27645 38.8427 3.25994C38.8493 3.24672 38.8537 3.23241 38.8581 3.21919C39.0816 2.61471 39.4449 2.07739 39.9041 1.64357C39.9415 1.60613 39.9602 1.55658 39.9393 1.52465C39.9173 1.49052 39.86 1.48721 39.8083 1.51034C38.7447 2.01242 37.9288 2.95604 37.5985 4.10335C36.6152 4.43037 35.7927 5.11634 35.2928 6.0093C35.2708 6.05224 35.2741 6.10069 35.3016 6.12271C35.3314 6.14804 35.3842 6.13813 35.4249 6.104C35.8511 5.72963 36.3553 5.43895 36.9059 5.26608C36.9246 5.26058 36.9433 5.25837 36.9631 5.25837C37.0765 5.25837 37.1679 5.34866 37.1734 5.45987V5.46758C37.1734 5.47639 37.1679 5.50942 37.1657 5.52263C37.1624 5.53584 37.158 5.54906 37.158 5.55676C36.9554 6.36165 36.7804 7.3493 36.6515 8.56378C36.6328 8.74105 36.4919 8.88529 36.3168 8.92163C35.0924 9.13854 34.4362 9.31141 34.4362 9.31141C34.4362 9.31141 34.1455 9.38628 34.1136 9.62962C34.0894 9.8157 34.0442 10.1339 34.0211 10.3057C34.02 10.3134 34.0189 10.3244 34.0189 10.3332C34.0189 10.4488 34.1136 10.5446 34.2281 10.5446C34.2391 10.5446 34.2523 10.5424 34.2633 10.5413C34.5804 10.4907 35.2642 10.3883 36.2629 10.2693C36.2717 10.2693 36.2849 10.2671 36.2926 10.2671C36.4093 10.2671 36.504 10.3607 36.504 10.4774C36.504 10.4796 36.5029 10.4851 36.5029 10.4884C36.4677 11.17 36.4423 11.9044 36.4324 12.7016V12.7049C36.439 13.2334 36.4522 13.7311 36.4721 14.2046C36.4743 14.2156 36.4721 14.231 36.4721 14.242C36.4721 14.4732 36.2838 14.6615 36.0537 14.6615C36.0349 14.6615 36.0096 14.6604 35.9931 14.6571C35.1387 14.5536 34.5463 14.4644 34.26 14.4182C34.2501 14.4171 34.2391 14.416 34.2303 14.416C34.1136 14.416 34.0189 14.5096 34.0189 14.6252C34.0189 14.6362 34.02 14.6483 34.0211 14.6582C34.0464 14.8289 34.0894 15.146 34.1136 15.3309C34.1455 15.5754 34.4362 15.6481 34.4362 15.6481C34.4362 15.6481 35.0803 15.8165 36.2739 16.0301C36.4555 16.0643 36.5976 16.2162 36.6185 16.4023C36.7242 17.5166 36.8695 18.4448 37.0413 19.2177C37.06 19.2915 37.0788 19.3653 37.0953 19.4357C37.0964 19.4423 37.0997 19.4567 37.103 19.4699C37.1063 19.482 37.1107 19.515 37.1107 19.5238V19.5326C37.1063 19.6438 37.0138 19.733 36.9004 19.733C36.8817 19.733 36.8629 19.7308 36.8442 19.7253C36.2926 19.5524 35.7894 19.2618 35.3633 18.8885C35.3214 18.8544 35.2708 18.8445 35.24 18.8687C35.2124 18.8918 35.208 18.9391 35.2312 18.9832C35.731 19.8751 36.5502 20.5621 37.5357 20.888C37.8649 22.0354 38.6841 22.9801 39.7455 23.4811C39.7984 23.5042 39.8545 23.502 39.8755 23.4678C39.8975 23.4359 39.881 23.3853 39.8402 23.3478C39.38 22.914 39.0199 22.3767 38.7964 21.7733C38.7909 21.7601 38.7865 21.7458 38.781 21.7326C38.7755 21.7149 38.7436 21.6357 38.7447 21.5993V21.5751C38.7579 21.4705 38.846 21.3901 38.9539 21.3901C38.9748 21.3901 38.999 21.3934 39.0177 21.3989C39.0331 21.4033 39.0519 21.4088 39.0673 21.4132C39.9173 21.6379 40.9732 21.835 42.2956 21.9858C42.4674 22.0034 42.6083 22.1245 42.6579 22.2842C42.6645 22.3084 42.6788 22.4053 42.6821 22.4284C42.8737 23.655 43.0256 24.3432 43.0256 24.3432C43.0256 24.3432 43.0895 24.5953 43.2932 24.635C43.4429 24.6658 43.8239 24.7187 44.0364 24.7451C44.0452 24.7462 44.0518 24.7473 44.0606 24.7473C44.1773 24.7473 44.2687 24.6526 44.2687 24.5359V24.515L44.0518 22.6431C44.0485 22.6255 44.0485 22.6079 44.0485 22.5903C44.0485 22.3591 44.2445 22.1609 44.4746 22.1697C45.3213 22.2203 46.2484 22.2534 47.268 22.2655H47.2724C48.2623 22.2545 49.1696 22.2225 49.9954 22.1752C50.2277 22.1752 50.416 22.3624 50.416 22.5947C50.416 22.6112 50.4127 22.6288 50.4127 22.6442C50.318 23.5702 50.2365 24.2155 50.198 24.5095C50.198 24.5183 50.198 24.5271 50.198 24.5359C50.198 24.6526 50.2905 24.7462 50.4072 24.7462C50.4127 24.7462 50.4193 24.7462 50.4292 24.7451C50.6406 24.7187 51.0183 24.6658 51.168 24.635C51.3739 24.5953 51.4378 24.3432 51.4378 24.3432C51.4378 24.3432 51.5941 23.6297 51.7912 22.3624C51.8221 22.173 51.9542 22.0243 52.1612 21.9957C53.2876 21.8713 54.2246 21.7105 55.0041 21.53C55.1231 21.5013 55.2387 21.4716 55.3477 21.443C55.3642 21.4386 55.3829 21.4342 55.3972 21.4287C55.4159 21.4232 55.4413 21.4199 55.4622 21.4199C55.5701 21.4199 55.6593 21.5002 55.6714 21.6048V21.6291C55.6725 21.6654 55.6406 21.7447 55.634 21.7623C55.6296 21.7755 55.624 21.7898 55.6185 21.803C55.3961 22.4064 55.0361 22.9448 54.5747 23.3776C54.5351 23.415 54.5186 23.4656 54.5395 23.4976C54.5615 23.5306 54.6188 23.5339 54.6705 23.5119C55.732 23.0098 56.55 22.0651 56.8793 20.9178C57.8636 20.5919 58.6839 19.9037 59.1849 19.0129C59.2069 18.9689 59.2036 18.9215 59.175 18.8984C59.1453 18.8742 59.0946 18.883 59.0539 18.9182C58.6267 19.2926 58.1224 19.5833 57.5707 19.755C57.552 19.7605 57.5344 19.7627 57.5157 19.7627C57.4023 19.7627 57.3098 19.6736 57.3054 19.5613C57.3054 19.5591 57.3032 19.5557 57.3032 19.5524C57.3032 19.5447 57.3098 19.5128 57.3131 19.4996C57.3164 19.4864 57.3197 19.4721 57.3208 19.4655C57.3373 19.395 57.356 19.3212 57.3725 19.2474C57.3957 19.145 57.4166 19.0371 57.4408 18.9292C57.5895 18.1981 57.7161 17.3393 57.8108 16.3274C57.8306 16.1391 57.9781 15.9817 58.1664 15.952C59.3071 15.7538 59.9336 15.6018 59.9336 15.6018C59.9336 15.6018 60.2056 15.539 60.2496 15.3354C60.2827 15.1867 60.3377 14.819 60.3674 14.6042C60.3686 14.5954 60.3697 14.5855 60.3697 14.5745C60.3697 14.4589 60.2739 14.3653 60.1593 14.3653C60.1505 14.3653 60.1395 14.3653 60.1296 14.3664C59.8544 14.4083 59.2653 14.4941 58.4175 14.5954C58.4042 14.5965 58.3844 14.5987 58.369 14.5987C58.1389 14.5987 57.9495 14.4105 57.9495 14.1792V14.1528C57.9682 13.6948 57.9814 13.2136 57.988 12.7049V12.7016C57.9781 11.9044 57.9539 11.1678 57.9176 10.4862V10.4708C57.9176 10.3552 58.0112 10.2605 58.1257 10.2605C58.1356 10.2605 58.1477 10.2616 58.1554 10.2638C59.1882 10.3827 59.8907 10.4896 60.2155 10.5413C60.2254 10.5424 60.2375 10.5435 60.2496 10.5435C60.3674 10.5435 60.4588 10.4499 60.4588 10.3343V10.3112C60.4335 10.1427 60.3895 9.8179 60.3674 9.62962C60.3333 9.38628 60.0426 9.31141 60.0426 9.31141C60.0426 9.31141 59.3677 9.13303 58.1048 8.91172C57.9231 8.87428 57.7843 8.72234 57.7634 8.53625C57.6412 7.36141 57.476 6.40018 57.279 5.61182C57.2734 5.58759 57.2679 5.56447 57.2613 5.54025C57.2613 5.53364 57.258 5.51933 57.2547 5.50612C57.2514 5.494 57.2459 5.46097 57.2459 5.45326V5.44446C57.2514 5.33215 57.3439 5.24296 57.4573 5.24296C57.476 5.24296 57.4937 5.24516 57.5124 5.24956C58.064 5.42353 58.5683 5.71312 58.9955 6.08748C59.0341 6.12271 59.0869 6.13262 59.1177 6.1084C59.1453 6.08418 59.1486 6.03793 59.1265 5.99279C58.6267 5.10092 57.8053 4.41496 56.822 4.08904C56.4917 2.94063 55.6736 1.99701 54.6122 1.49492C54.5593 1.4718 54.5032 1.474 54.48 1.50814C54.4602 1.54007 54.4767 1.59072 54.5164 1.62815C54.9777 2.06087 55.3367 2.6004 55.5602 3.20268C55.5668 3.21699 55.5701 3.23021 55.5756 3.24342C55.5767 3.24782 55.5877 3.27975 55.5976 3.31058C55.6031 3.3304 55.6086 3.35243 55.6086 3.37335C55.6086 3.48896 55.515 3.58255 55.3972 3.58255C55.3796 3.58255 55.3576 3.57924 55.3389 3.57374C54.4877 3.34031 53.4582 3.13992 52.2118 2.99898L52.2052 2.99788C52.0313 2.97366 51.8936 2.84263 51.8562 2.67196C51.8562 2.66536 51.8529 2.64994 51.8529 2.64994C51.6503 1.37821 51.4818 0.691142 51.4818 0.691142C51.4818 0.691142 51.4081 0.421381 51.1647 0.392753C50.9753 0.36853 50.4777 0.305768 50.4777 0.305768C50.471 0.304667 50.4622 0.304668 50.4567 0.304668C50.34 0.304668 50.2453 0.398258 50.2453 0.514972C50.2453 0.524881 50.2464 0.536992 50.2475 0.546902M52.0643 20.4223C52.0643 20.6535 52.2526 20.8418 52.4849 20.8418C52.497 20.8418 52.5135 20.8418 52.5256 20.8407C53.8932 20.7108 54.9986 20.5247 55.8795 20.3155C56.027 20.2758 56.1437 20.1547 56.1801 20.0083C56.3761 19.1285 56.539 18.0462 56.6403 16.7062C56.6403 16.7062 56.6425 16.6853 56.6425 16.6765C56.6425 16.4441 56.4532 16.2569 56.223 16.2569C56.2021 16.2569 56.1834 16.258 56.1614 16.2614C55.1913 16.3946 54.0506 16.5267 52.7668 16.6335C52.5521 16.6522 52.3968 16.8163 52.3781 17.0596C52.2911 18.2972 52.1821 19.4148 52.0676 20.3727C52.0665 20.3893 52.0643 20.4058 52.0643 20.4223ZM50.8146 17.2138C50.8212 16.9837 50.6252 16.7932 50.3918 16.7932H50.3885C49.2775 16.8493 48.0938 16.8824 46.843 16.8824C45.8708 16.8824 44.9481 16.8614 44.0782 16.8273C43.8492 16.8273 43.6609 17.0156 43.6609 17.2468L43.8701 20.5698C43.8812 20.8033 44.0639 20.9838 44.293 20.9893C44.293 20.9893 46.1846 21.0367 47.2735 21.0224H47.2768C48.3361 21.0356 50.1837 20.9893 50.1837 20.9893C50.1892 20.9893 50.198 20.9893 50.2046 20.9882C50.4149 20.9783 50.5856 20.8121 50.601 20.6029L50.8146 17.2138ZM42.3507 4.65609C42.354 4.63517 42.354 4.60764 42.354 4.58672C42.354 4.3555 42.1668 4.16721 41.9356 4.16721C41.9179 4.16721 41.9025 4.16942 41.8882 4.17052C40.5504 4.32247 39.4813 4.52286 38.6258 4.73537C38.4683 4.7695 38.3428 4.89282 38.3042 5.04697C38.1116 5.88158 37.9464 6.90888 37.8363 8.1718C37.833 8.18281 37.833 8.19933 37.833 8.21144C37.833 8.44487 38.0224 8.63205 38.2536 8.63205C38.2734 8.63205 38.2932 8.63095 38.3119 8.62764C39.2203 8.50763 41.4456 8.29732 41.6152 8.28411C41.6218 8.28411 41.6471 8.28191 41.6603 8.27971C41.7803 8.26759 42.0446 8.19052 42.0688 7.88773C42.1415 6.66664 42.2439 5.58429 42.3507 4.65609ZM41.9818 20.8297C42.2152 20.8297 42.42 20.6381 42.4079 20.4036C42.4079 20.3937 42.4057 20.3838 42.4057 20.3749C42.2923 19.4302 42.1855 18.3358 42.1007 17.1191C42.0908 16.8868 41.9124 16.7227 41.6735 16.6919L38.2228 16.3373C37.9926 16.3373 37.8055 16.5179 37.7966 16.7447V16.7965C37.9001 18.088 38.2415 19.9664 38.2415 19.9664C38.2756 20.1239 38.3989 20.2494 38.5575 20.2869C38.5575 20.2869 40.3731 20.6535 41.9334 20.8275C41.9488 20.8297 41.9642 20.8297 41.9818 20.8297ZM38.1094 14.8828C39.3525 14.9885 41.5535 15.1306 41.5535 15.1306C41.7759 15.1416 41.9829 14.9412 41.9741 14.7077C41.9466 13.9062 41.9268 13.0716 41.9268 12.1973C41.9268 11.5224 41.9378 10.8782 41.9554 10.2572C41.9554 10.0183 41.7825 9.819 41.5348 9.83331C40.2278 9.90268 39.0673 9.99077 38.0763 10.0833C37.8616 10.1042 37.6965 10.2837 37.6965 10.5017C37.6965 10.5017 37.6733 11.9143 37.6821 12.7027V12.7071C37.6755 13.327 37.6766 13.9062 37.6887 14.4567C37.6887 14.689 37.8704 14.863 38.1094 14.8828ZM56.7482 12.7071V12.7027C56.757 11.9132 56.7515 11.1821 56.7328 10.4995C56.7295 10.277 56.5578 10.0943 56.3408 10.0778C55.3675 9.98856 54.2312 9.90268 52.9573 9.83441C52.9518 9.83331 52.9462 9.83331 52.9396 9.83331C52.7062 9.83331 52.519 10.0216 52.519 10.2539V10.2649C52.5355 10.8826 52.5466 11.5257 52.5466 12.1973C52.5466 13.055 52.5278 13.8753 52.5003 14.6626C52.4926 14.896 52.6875 15.0865 52.9209 15.0865C52.9297 15.0865 52.9429 15.0865 52.9529 15.0865C54.2268 15.0083 55.373 14.9125 56.3596 14.819C56.5765 14.7892 56.7383 14.6219 56.7416 14.3983C56.7548 13.8654 56.7548 13.3039 56.7482 12.7071ZM52.8692 8.2764C52.976 8.2786 55.1858 8.48671 56.1184 8.60893C56.1371 8.61113 56.157 8.61333 56.1768 8.61333C56.4102 8.61333 56.5974 8.42505 56.5974 8.19382C56.5974 8.17841 56.5974 8.16189 56.5963 8.14758C56.4476 6.71839 56.1349 5.03816 56.1349 5.03816C56.1008 4.88181 55.9808 4.75739 55.8288 4.71775C55.8266 4.71665 55.8167 4.71445 55.8167 4.71445C54.9623 4.50634 53.9064 4.31146 52.5829 4.16281C52.5829 4.16281 52.5576 4.16061 52.5433 4.16061C52.3131 4.16061 52.105 4.3588 52.1249 4.58012C52.126 4.59663 52.3197 6.49818 52.4111 7.84919V7.88112C52.4265 8.09473 52.5895 8.25328 52.8692 8.2764Z" fill="#F9AE0C"/>
</g>
<defs>
<clipPath id="clip0_3_3">
<rect width="96" height="53" fill="white"/>
</clipPath>
</defs>
</svg>
